<mxfile host="Electron" modified="2024-07-30T19:35:53.846Z" agent="Mozilla/5.0 (Windows NT 10.0; Win64; x64) AppleWebKit/537.36 (KHTML, like Gecko) draw.io/22.1.16 Chrome/120.0.6099.109 Electron/28.1.0 Safari/537.36" etag="Bu5TjsQdXc_WVKyb7pUA" version="22.1.16" type="device">
  <diagram name="Page-1" id="06a7xDL5wKIqWMyX5yAS">
    <mxGraphModel dx="2026" dy="1343" grid="1" gridSize="10" guides="1" tooltips="1" connect="1" arrows="1" fold="1" page="1" pageScale="1" pageWidth="1350" pageHeight="700" math="0" shadow="0">
      <root>
        <mxCell id="0" />
        <mxCell id="1" parent="0" />
        <mxCell id="QHFlkrGu0vg11j4XelSG-26" value="" style="rounded=0;whiteSpace=wrap;html=1;" parent="1" vertex="1">
          <mxGeometry x="520" y="180" width="20" height="120" as="geometry" />
        </mxCell>
        <mxCell id="QHFlkrGu0vg11j4XelSG-32" value="" style="rounded=0;whiteSpace=wrap;html=1;" parent="1" vertex="1">
          <mxGeometry x="325" y="350" width="20" height="120" as="geometry" />
        </mxCell>
        <mxCell id="QHFlkrGu0vg11j4XelSG-33" value="" style="rounded=0;whiteSpace=wrap;html=1;" parent="1" vertex="1">
          <mxGeometry x="520" y="350" width="20" height="120" as="geometry" />
        </mxCell>
        <mxCell id="QHFlkrGu0vg11j4XelSG-39" value="" style="rounded=0;whiteSpace=wrap;html=1;" parent="1" vertex="1">
          <mxGeometry x="325" y="520" width="20" height="120" as="geometry" />
        </mxCell>
        <mxCell id="QHFlkrGu0vg11j4XelSG-46" value="" style="rounded=0;whiteSpace=wrap;html=1;" parent="1" vertex="1">
          <mxGeometry x="1015" y="10" width="20" height="120" as="geometry" />
        </mxCell>
        <mxCell id="QHFlkrGu0vg11j4XelSG-47" value="" style="rounded=0;whiteSpace=wrap;html=1;" parent="1" vertex="1">
          <mxGeometry x="1210" y="10" width="20" height="120" as="geometry" />
        </mxCell>
        <mxCell id="QHFlkrGu0vg11j4XelSG-49" value="" style="rounded=0;whiteSpace=wrap;html=1;" parent="1" vertex="1">
          <mxGeometry x="820" y="180" width="20" height="120" as="geometry" />
        </mxCell>
        <mxCell id="QHFlkrGu0vg11j4XelSG-53" value="" style="rounded=0;whiteSpace=wrap;html=1;" parent="1" vertex="1">
          <mxGeometry x="1015" y="180" width="20" height="120" as="geometry" />
        </mxCell>
        <mxCell id="QHFlkrGu0vg11j4XelSG-54" value="" style="rounded=0;whiteSpace=wrap;html=1;" parent="1" vertex="1">
          <mxGeometry x="1210" y="180" width="20" height="120" as="geometry" />
        </mxCell>
        <mxCell id="QHFlkrGu0vg11j4XelSG-56" value="" style="rounded=0;whiteSpace=wrap;html=1;" parent="1" vertex="1">
          <mxGeometry x="820" y="350" width="20" height="120" as="geometry" />
        </mxCell>
        <mxCell id="QHFlkrGu0vg11j4XelSG-60" value="" style="rounded=0;whiteSpace=wrap;html=1;" parent="1" vertex="1">
          <mxGeometry x="1015" y="350" width="20" height="120" as="geometry" />
        </mxCell>
        <mxCell id="QHFlkrGu0vg11j4XelSG-61" value="" style="rounded=0;whiteSpace=wrap;html=1;" parent="1" vertex="1">
          <mxGeometry x="1210" y="350" width="20" height="120" as="geometry" />
        </mxCell>
        <mxCell id="QHFlkrGu0vg11j4XelSG-63" value="" style="rounded=0;whiteSpace=wrap;html=1;" parent="1" vertex="1">
          <mxGeometry x="820" y="520" width="20" height="120" as="geometry" />
        </mxCell>
        <mxCell id="QHFlkrGu0vg11j4XelSG-67" value="" style="rounded=0;whiteSpace=wrap;html=1;" parent="1" vertex="1">
          <mxGeometry x="1015" y="520" width="20" height="120" as="geometry" />
        </mxCell>
        <mxCell id="QHFlkrGu0vg11j4XelSG-68" value="" style="rounded=0;whiteSpace=wrap;html=1;" parent="1" vertex="1">
          <mxGeometry x="1210" y="520" width="20" height="120" as="geometry" />
        </mxCell>
        <mxCell id="QHFlkrGu0vg11j4XelSG-1" value="" style="rounded=0;whiteSpace=wrap;html=1;" parent="1" vertex="1">
          <mxGeometry x="10" y="130" width="640" height="30" as="geometry" />
        </mxCell>
        <mxCell id="QHFlkrGu0vg11j4XelSG-2" value="" style="rounded=0;whiteSpace=wrap;html=1;" parent="1" vertex="1">
          <mxGeometry x="130" y="10" width="20" height="120" as="geometry" />
        </mxCell>
        <mxCell id="QHFlkrGu0vg11j4XelSG-5" value="" style="rounded=0;whiteSpace=wrap;html=1;fillColor=#ffe6cc;strokeColor=#000000;" parent="1" vertex="1">
          <mxGeometry x="50" y="97" width="180" height="30" as="geometry" />
        </mxCell>
        <mxCell id="QHFlkrGu0vg11j4XelSG-6" value="" style="rounded=0;whiteSpace=wrap;html=1;fillColor=#dae8fc;strokeColor=#000000;" parent="1" vertex="1">
          <mxGeometry x="70" y="65" width="140" height="30" as="geometry" />
        </mxCell>
        <mxCell id="QHFlkrGu0vg11j4XelSG-7" value="" style="rounded=0;whiteSpace=wrap;html=1;fillColor=#d5e8d4;strokeColor=#000000;" parent="1" vertex="1">
          <mxGeometry x="90" y="33" width="100" height="30" as="geometry" />
        </mxCell>
        <mxCell id="QHFlkrGu0vg11j4XelSG-12" value="" style="rounded=0;whiteSpace=wrap;html=1;" parent="1" vertex="1">
          <mxGeometry x="325" y="10" width="20" height="120" as="geometry" />
        </mxCell>
        <mxCell id="QHFlkrGu0vg11j4XelSG-16" value="" style="rounded=0;whiteSpace=wrap;html=1;" parent="1" vertex="1">
          <mxGeometry x="520" y="10" width="20" height="120" as="geometry" />
        </mxCell>
        <mxCell id="QHFlkrGu0vg11j4XelSG-20" value="" style="rounded=0;whiteSpace=wrap;html=1;" parent="1" vertex="1">
          <mxGeometry x="10" y="300" width="640" height="30" as="geometry" />
        </mxCell>
        <mxCell id="QHFlkrGu0vg11j4XelSG-21" value="" style="rounded=0;whiteSpace=wrap;html=1;" parent="1" vertex="1">
          <mxGeometry x="130" y="180" width="20" height="120" as="geometry" />
        </mxCell>
        <mxCell id="QHFlkrGu0vg11j4XelSG-22" value="" style="rounded=0;whiteSpace=wrap;html=1;fillColor=#ffe6cc;strokeColor=#000000;" parent="1" vertex="1">
          <mxGeometry x="50" y="267" width="180" height="30" as="geometry" />
        </mxCell>
        <mxCell id="QHFlkrGu0vg11j4XelSG-23" value="" style="rounded=0;whiteSpace=wrap;html=1;fillColor=#dae8fc;strokeColor=#000000;" parent="1" vertex="1">
          <mxGeometry x="70" y="235" width="140" height="30" as="geometry" />
        </mxCell>
        <mxCell id="QHFlkrGu0vg11j4XelSG-24" value="" style="rounded=0;whiteSpace=wrap;html=1;fillColor=#d5e8d4;strokeColor=#000000;" parent="1" vertex="1">
          <mxGeometry x="480" y="267" width="100" height="30" as="geometry" />
        </mxCell>
        <mxCell id="QHFlkrGu0vg11j4XelSG-25" value="" style="rounded=0;whiteSpace=wrap;html=1;" parent="1" vertex="1">
          <mxGeometry x="325" y="180" width="20" height="120" as="geometry" />
        </mxCell>
        <mxCell id="QHFlkrGu0vg11j4XelSG-27" value="" style="rounded=0;whiteSpace=wrap;html=1;" parent="1" vertex="1">
          <mxGeometry x="10" y="470" width="640" height="30" as="geometry" />
        </mxCell>
        <mxCell id="QHFlkrGu0vg11j4XelSG-28" value="" style="rounded=0;whiteSpace=wrap;html=1;" parent="1" vertex="1">
          <mxGeometry x="130" y="350" width="20" height="120" as="geometry" />
        </mxCell>
        <mxCell id="QHFlkrGu0vg11j4XelSG-29" value="" style="rounded=0;whiteSpace=wrap;html=1;fillColor=#ffe6cc;strokeColor=#000000;" parent="1" vertex="1">
          <mxGeometry x="50" y="437" width="180" height="30" as="geometry" />
        </mxCell>
        <mxCell id="QHFlkrGu0vg11j4XelSG-30" value="" style="rounded=0;whiteSpace=wrap;html=1;fillColor=#dae8fc;strokeColor=#000000;" parent="1" vertex="1">
          <mxGeometry x="265" y="437" width="140" height="30" as="geometry" />
        </mxCell>
        <mxCell id="QHFlkrGu0vg11j4XelSG-31" value="" style="rounded=0;whiteSpace=wrap;html=1;fillColor=#d5e8d4;strokeColor=#000000;" parent="1" vertex="1">
          <mxGeometry x="480" y="437" width="100" height="30" as="geometry" />
        </mxCell>
        <mxCell id="QHFlkrGu0vg11j4XelSG-34" value="" style="rounded=0;whiteSpace=wrap;html=1;" parent="1" vertex="1">
          <mxGeometry x="10" y="640" width="640" height="30" as="geometry" />
        </mxCell>
        <mxCell id="QHFlkrGu0vg11j4XelSG-35" value="" style="rounded=0;whiteSpace=wrap;html=1;" parent="1" vertex="1">
          <mxGeometry x="130" y="520" width="20" height="120" as="geometry" />
        </mxCell>
        <mxCell id="QHFlkrGu0vg11j4XelSG-36" value="" style="rounded=0;whiteSpace=wrap;html=1;fillColor=#ffe6cc;strokeColor=#000000;" parent="1" vertex="1">
          <mxGeometry x="50" y="607" width="180" height="30" as="geometry" />
        </mxCell>
        <mxCell id="QHFlkrGu0vg11j4XelSG-37" value="" style="rounded=0;whiteSpace=wrap;html=1;fillColor=#dae8fc;strokeColor=#000000;" parent="1" vertex="1">
          <mxGeometry x="265" y="605" width="140" height="30" as="geometry" />
        </mxCell>
        <mxCell id="QHFlkrGu0vg11j4XelSG-38" value="" style="rounded=0;whiteSpace=wrap;html=1;fillColor=#d5e8d4;strokeColor=#000000;" parent="1" vertex="1">
          <mxGeometry x="285" y="572" width="100" height="30" as="geometry" />
        </mxCell>
        <mxCell id="QHFlkrGu0vg11j4XelSG-40" value="" style="rounded=0;whiteSpace=wrap;html=1;" parent="1" vertex="1">
          <mxGeometry x="520" y="520" width="20" height="120" as="geometry" />
        </mxCell>
        <mxCell id="QHFlkrGu0vg11j4XelSG-41" value="" style="rounded=0;whiteSpace=wrap;html=1;" parent="1" vertex="1">
          <mxGeometry x="700" y="130" width="640" height="30" as="geometry" />
        </mxCell>
        <mxCell id="QHFlkrGu0vg11j4XelSG-42" value="" style="rounded=0;whiteSpace=wrap;html=1;" parent="1" vertex="1">
          <mxGeometry x="820" y="10" width="20" height="120" as="geometry" />
        </mxCell>
        <mxCell id="QHFlkrGu0vg11j4XelSG-43" value="" style="rounded=0;whiteSpace=wrap;html=1;fillColor=#ffe6cc;strokeColor=#000000;" parent="1" vertex="1">
          <mxGeometry x="1130" y="97" width="180" height="30" as="geometry" />
        </mxCell>
        <mxCell id="QHFlkrGu0vg11j4XelSG-44" value="" style="rounded=0;whiteSpace=wrap;html=1;fillColor=#dae8fc;strokeColor=#000000;" parent="1" vertex="1">
          <mxGeometry x="955" y="97" width="140" height="30" as="geometry" />
        </mxCell>
        <mxCell id="QHFlkrGu0vg11j4XelSG-45" value="" style="rounded=0;whiteSpace=wrap;html=1;fillColor=#d5e8d4;strokeColor=#000000;" parent="1" vertex="1">
          <mxGeometry x="975" y="64" width="100" height="30" as="geometry" />
        </mxCell>
        <mxCell id="QHFlkrGu0vg11j4XelSG-48" value="" style="rounded=0;whiteSpace=wrap;html=1;" parent="1" vertex="1">
          <mxGeometry x="700" y="300" width="640" height="30" as="geometry" />
        </mxCell>
        <mxCell id="QHFlkrGu0vg11j4XelSG-50" value="" style="rounded=0;whiteSpace=wrap;html=1;fillColor=#ffe6cc;strokeColor=#000000;" parent="1" vertex="1">
          <mxGeometry x="1130" y="267" width="180" height="30" as="geometry" />
        </mxCell>
        <mxCell id="QHFlkrGu0vg11j4XelSG-51" value="" style="rounded=0;whiteSpace=wrap;html=1;fillColor=#dae8fc;strokeColor=#000000;" parent="1" vertex="1">
          <mxGeometry x="955" y="267" width="140" height="30" as="geometry" />
        </mxCell>
        <mxCell id="QHFlkrGu0vg11j4XelSG-52" value="" style="rounded=0;whiteSpace=wrap;html=1;fillColor=#d5e8d4;strokeColor=#000000;" parent="1" vertex="1">
          <mxGeometry x="780" y="267" width="100" height="30" as="geometry" />
        </mxCell>
        <mxCell id="QHFlkrGu0vg11j4XelSG-55" value="" style="rounded=0;whiteSpace=wrap;html=1;" parent="1" vertex="1">
          <mxGeometry x="700" y="470" width="640" height="30" as="geometry" />
        </mxCell>
        <mxCell id="QHFlkrGu0vg11j4XelSG-57" value="" style="rounded=0;whiteSpace=wrap;html=1;fillColor=#ffe6cc;strokeColor=#000000;" parent="1" vertex="1">
          <mxGeometry x="1130" y="437" width="180" height="30" as="geometry" />
        </mxCell>
        <mxCell id="QHFlkrGu0vg11j4XelSG-58" value="" style="rounded=0;whiteSpace=wrap;html=1;fillColor=#dae8fc;strokeColor=#000000;" parent="1" vertex="1">
          <mxGeometry x="1150" y="404" width="140" height="30" as="geometry" />
        </mxCell>
        <mxCell id="QHFlkrGu0vg11j4XelSG-59" value="" style="rounded=0;whiteSpace=wrap;html=1;fillColor=#d5e8d4;strokeColor=#000000;" parent="1" vertex="1">
          <mxGeometry x="780" y="437" width="100" height="30" as="geometry" />
        </mxCell>
        <mxCell id="QHFlkrGu0vg11j4XelSG-62" value="" style="rounded=0;whiteSpace=wrap;html=1;" parent="1" vertex="1">
          <mxGeometry x="700" y="640" width="640" height="30" as="geometry" />
        </mxCell>
        <mxCell id="QHFlkrGu0vg11j4XelSG-64" value="" style="rounded=0;whiteSpace=wrap;html=1;fillColor=#ffe6cc;strokeColor=#000000;" parent="1" vertex="1">
          <mxGeometry x="1130" y="607" width="180" height="30" as="geometry" />
        </mxCell>
        <mxCell id="QHFlkrGu0vg11j4XelSG-65" value="" style="rounded=0;whiteSpace=wrap;html=1;fillColor=#dae8fc;strokeColor=#000000;" parent="1" vertex="1">
          <mxGeometry x="1150" y="574" width="140" height="30" as="geometry" />
        </mxCell>
        <mxCell id="QHFlkrGu0vg11j4XelSG-66" value="" style="rounded=0;whiteSpace=wrap;html=1;fillColor=#d5e8d4;strokeColor=#000000;" parent="1" vertex="1">
          <mxGeometry x="1170" y="541" width="100" height="30" as="geometry" />
        </mxCell>
        <mxCell id="QHFlkrGu0vg11j4XelSG-69" value="1" style="ellipse;whiteSpace=wrap;html=1;aspect=fixed;fontSize=13;" parent="1" vertex="1">
          <mxGeometry x="10" y="10" width="40" height="40" as="geometry" />
        </mxCell>
        <mxCell id="QHFlkrGu0vg11j4XelSG-70" value="5" style="ellipse;whiteSpace=wrap;html=1;aspect=fixed;fontSize=13;" parent="1" vertex="1">
          <mxGeometry x="700" y="10" width="40" height="40" as="geometry" />
        </mxCell>
        <mxCell id="QHFlkrGu0vg11j4XelSG-71" value="2" style="ellipse;whiteSpace=wrap;html=1;aspect=fixed;fontSize=13;" parent="1" vertex="1">
          <mxGeometry x="10" y="180" width="40" height="40" as="geometry" />
        </mxCell>
        <mxCell id="QHFlkrGu0vg11j4XelSG-72" value="6" style="ellipse;whiteSpace=wrap;html=1;aspect=fixed;fontSize=13;" parent="1" vertex="1">
          <mxGeometry x="700" y="180" width="40" height="40" as="geometry" />
        </mxCell>
        <mxCell id="QHFlkrGu0vg11j4XelSG-73" value="3" style="ellipse;whiteSpace=wrap;html=1;aspect=fixed;fontSize=13;" parent="1" vertex="1">
          <mxGeometry x="10" y="350" width="40" height="40" as="geometry" />
        </mxCell>
        <mxCell id="QHFlkrGu0vg11j4XelSG-74" value="4" style="ellipse;whiteSpace=wrap;html=1;aspect=fixed;fontSize=13;" parent="1" vertex="1">
          <mxGeometry x="10" y="520" width="40" height="40" as="geometry" />
        </mxCell>
        <mxCell id="QHFlkrGu0vg11j4XelSG-75" value="7" style="ellipse;whiteSpace=wrap;html=1;aspect=fixed;fontSize=13;" parent="1" vertex="1">
          <mxGeometry x="700" y="350" width="40" height="40" as="geometry" />
        </mxCell>
        <mxCell id="QHFlkrGu0vg11j4XelSG-76" value="8" style="ellipse;whiteSpace=wrap;html=1;aspect=fixed;fontSize=13;" parent="1" vertex="1">
          <mxGeometry x="700" y="520" width="40" height="40" as="geometry" />
        </mxCell>
      </root>
    </mxGraphModel>
  </diagram>
</mxfile>
